<svg width="64" height="64" viewBox="0 0 64 64" fill="none" xmlns="http://www.w3.org/2000/svg" role="img" aria-label="Koala Statements">
  <defs>
    <linearGradient id="kl-tile" x1="0" y1="0" x2="64" y2="64" gradientUnits="userSpaceOnUse">
      <stop stop-color="#0F172A"/>
      <stop offset="1" stop-color="#1E293B"/>
    </linearGradient>
    <linearGradient id="kl-accent" x1="20" y1="34" x2="44" y2="52" gradientUnits="userSpaceOnUse">
      <stop stop-color="#10B981"/>
      <stop offset="1" stop-color="#059669"/>
    </linearGradient>
  </defs>
  <!-- app-icon tile -->
  <rect width="64" height="64" rx="15" fill="url(#kl-tile)"/>
  <!-- ears -->
  <circle cx="17" cy="22" r="9.5" fill="#E2E8F0"/>
  <circle cx="47" cy="22" r="9.5" fill="#E2E8F0"/>
  <circle cx="17" cy="22" r="4.4" fill="url(#kl-accent)"/>
  <circle cx="47" cy="22" r="4.4" fill="url(#kl-accent)"/>
  <!-- head -->
  <path d="M32 15c11 0 18 7.8 18 18.5C50 45.4 42 53 32 53S14 45.4 14 33.5C14 22.8 21 15 32 15Z" fill="#F1F5F9"/>
  <!-- eyes -->
  <circle cx="24.5" cy="32" r="2.7" fill="#0F172A"/>
  <circle cx="39.5" cy="32" r="2.7" fill="#0F172A"/>
  <!-- nose -->
  <path d="M32 34c4.6 0 7.1 2.8 6.7 6.1-.4 3.3-3.9 6.3-6.7 8.2-2.8-1.9-6.3-4.9-6.7-8.2C24.9 36.8 27.4 34 32 34Z" fill="url(#kl-accent)"/>
</svg>
